<svg width="122" height="32" viewBox="0 0 122 32" fill="none" xmlns="http://www.w3.org/2000/svg">
<path fill-rule="evenodd" clip-rule="evenodd" d="M39.0522 19.1578C39.0522 21.6598 37.2751 25.4259 35.3227 27.1103C33.5386 28.6506 31.5361 29.7917 28.63 30.6215C23.1199 32.1934 15.7112 32.0229 10.3332 30.2989C2.8902 27.9138 -0.0581351 21.8593 0.000866784 16C-0.053732 10.138 2.89108 4.08615 10.3341 1.7011C15.7121 -0.0228564 23.1208 -0.193406 28.6309 1.37846C31.5369 2.20835 33.5386 3.34945 35.3236 4.88879C37.2769 6.57495 39.0531 10.3437 39.0531 12.8457H25.9538C25.8921 12.4299 25.8587 11.8242 25.2255 10.7886C23.1014 7.34242 15.7808 7.7855 13.6823 10.771C12.6185 12.2857 12.1227 14.1591 12.1649 16.0035C12.1227 17.8497 12.6185 19.7213 13.6823 21.236C15.7808 24.2251 23.1049 24.6646 25.2255 21.2185C25.8604 20.1793 25.8921 19.5736 25.9547 19.1569L39.0522 19.1578Z" fill="white"/>
<path fill-rule="evenodd" clip-rule="evenodd" d="M80.6582 32V0C79.6649 0 56.8215 0.156484 54.9043 0.60044C46.4169 1.71429 41.3427 4.36396 41.3427 13.2967V18.7042C41.3427 27.6369 46.4177 30.2866 54.9043 31.3996C56.8215 31.8444 79.6649 32 80.6582 32ZM58.5748 9.17983C55.9392 10.2163 54.5443 13.0503 54.56 15.873C54.5443 18.6966 55.9392 21.7918 58.5748 22.8282C60.7155 23.6705 64.9172 23.6547 67.8371 23.6437C68.1506 23.6425 68.4494 23.6414 68.7293 23.6414V8.36665C68.4494 8.36665 68.1506 8.36552 67.8371 8.36434C64.9172 8.35336 60.7155 8.33754 58.5748 9.17983Z" fill="white"/>
<path fill-rule="evenodd" clip-rule="evenodd" d="M122 19.1574C122 21.6602 120.224 25.4255 118.271 27.1108C116.486 28.651 114.484 29.7912 111.578 30.6211C106.068 32.193 98.659 32.0224 93.2819 30.2993C85.8371 27.9134 82.8906 21.8598 82.9487 15.9996C82.8923 10.1385 85.8371 4.0866 93.2819 1.70066C98.659 -0.022416 106.068 -0.192965 111.578 1.3789C114.484 2.20791 116.486 3.34989 118.271 4.88923C120.225 6.57539 122 10.3442 122 12.8462H108.901C108.839 12.4303 108.806 11.8246 108.174 10.789C106.049 7.34286 98.7286 7.78506 96.6301 10.7714C95.5663 12.2862 95.0705 14.1596 95.1128 16.004C95.0705 17.8501 95.5663 19.7218 96.6301 21.2365C98.7286 24.2255 106.053 24.6651 108.174 21.2189C108.808 20.1798 108.839 19.5732 108.902 19.1574H122Z" fill="white"/>
</svg>
